<?plantuml 1.2026.2?><svg xmlns="http://www.w3.org/2000/svg" xmlns:xlink="http://www.w3.org/1999/xlink" contentStyleType="text/css" data-diagram-type="DESCRIPTION" height="141px" preserveAspectRatio="none" style="width:1075px;height:141px;background:#FFFFFF;" version="1.1" viewBox="0 0 1075 141" width="1075px" zoomAndPan="magnify"><defs/><g><!--entity APP--><g class="entity" data-qualified-name="APP" data-source-line="4" id="ent0002"><rect fill="#F1F1F1" height="37.6094" rx="2.5" ry="2.5" style="stroke:#181818;stroke-width:0.5;" width="93.1445" x="7" y="48"/><text fill="#000000" font-family="sans-serif" font-size="14" lengthAdjust="spacing" textLength="73.1445" x="17" y="72.5332">Caller / App</text></g><!--entity JS--><g class="entity" data-qualified-name="JS" data-source-line="5" id="ent0003"><rect fill="#F1F1F1" height="37.6094" rx="2.5" ry="2.5" style="stroke:#181818;stroke-width:0.5;" width="89.248" x="160" y="48"/><text fill="#000000" font-family="sans-serif" font-size="14" lengthAdjust="spacing" textLength="69.248" x="170" y="72.5332">JobSystem</text></g><!--entity POOL--><g class="entity" data-qualified-name="POOL" data-source-line="6" id="ent0004"><rect fill="#F1F1F1" height="37.6094" rx="2.5" ry="2.5" style="stroke:#181818;stroke-width:0.5;" width="120.4063" x="316.5" y="7"/><text fill="#000000" font-family="sans-serif" font-size="14" lengthAdjust="spacing" textLength="100.4063" x="326.5" y="31.5332">BS::thread_pool</text></g><!--entity EXEC--><g class="entity" data-qualified-name="EXEC" data-source-line="7" id="ent0005"><rect fill="#F1F1F1" height="37.6094" rx="2.5" ry="2.5" style="stroke:#181818;stroke-width:0.5;" width="184.9717" x="504" y="7"/><text fill="#000000" font-family="sans-serif" font-size="14" lengthAdjust="spacing" textLength="164.9717" x="514" y="31.5332">IJob::Execute(JobContext)</text></g><!--entity BUSQ--><g class="entity" data-qualified-name="BUSQ" data-source-line="8" id="ent0006"><rect fill="#F1F1F1" height="55.2188" rx="2.5" ry="2.5" style="stroke:#181818;stroke-width:0.5;" width="135.1787" x="309" y="80.5"/><text fill="#000000" font-family="sans-serif" font-size="14" lengthAdjust="spacing" textLength="59.9238" x="319" y="105.0332">EventBus</text><text fill="#000000" font-family="sans-serif" font-size="14" lengthAdjust="spacing" textLength="115.1787" x="319" y="122.6426">Queue(Job*Event)</text></g><!--entity BUSP--><g class="entity" data-qualified-name="BUSP" data-source-line="9" id="ent0007"><rect fill="#F1F1F1" height="55.2188" rx="2.5" ry="2.5" style="stroke:#181818;stroke-width:0.5;" width="112.6064" x="540" y="80.5"/><text fill="#000000" font-family="sans-serif" font-size="14" lengthAdjust="spacing" textLength="59.9238" x="550" y="105.0332">EventBus</text><text fill="#000000" font-family="sans-serif" font-size="14" lengthAdjust="spacing" textLength="92.6064" x="550" y="122.6426">ProcessQueue</text></g><!--entity PT--><g class="entity" data-qualified-name="PT" data-source-line="10" id="ent0008"><rect fill="#F1F1F1" height="37.6094" rx="2.5" ry="2.5" style="stroke:#181818;stroke-width:0.5;" width="123.4688" x="749" y="89"/><text fill="#000000" font-family="sans-serif" font-size="14" lengthAdjust="spacing" textLength="103.4688" x="759" y="113.5332">ProgressTracker</text></g><!--entity UI--><g class="entity" data-qualified-name="UI" data-source-line="11" id="ent0009"><rect fill="#F1F1F1" height="37.6094" rx="2.5" ry="2.5" style="stroke:#181818;stroke-width:0.5;" width="137.4961" x="932" y="89"/><text fill="#000000" font-family="sans-serif" font-size="14" lengthAdjust="spacing" textLength="117.4961" x="942" y="113.5332">UI: snapshot views</text></g><!--link APP to JS--><g class="link" data-entity-1="ent0002" data-entity-2="ent0003" data-link-type="dependency" data-source-line="13" id="lnk10"><path d="M100.04,67 C119.1,67 135.07,67 153.93,67" fill="none" id="APP-to-JS" style="stroke:#181818;stroke-width:1;"/><polygon fill="#181818" points="159.93,67,150.93,63,154.93,67,150.93,71,159.93,67" style="stroke:#181818;stroke-width:1;"/></g><!--link JS to POOL--><g class="link" data-entity-1="ent0003" data-entity-2="ent0004" data-link-type="dependency" data-source-line="14" id="lnk11"><path d="M205,47.94 C205,37.23 205,26 205,26 C205,26 260.66,26 310.04,26" fill="none" id="JS-to-POOL" style="stroke:#181818;stroke-width:1;"/><polygon fill="#181818" points="316.04,26,307.04,22,311.04,26,307.04,30,316.04,26" style="stroke:#181818;stroke-width:1;"/></g><!--link POOL to EXEC--><g class="link" data-entity-1="ent0004" data-entity-2="ent0005" data-link-type="dependency" data-source-line="15" id="lnk12"><path d="M436.62,26 C457.35,26 475.09,26 497.82,26" fill="none" id="POOL-to-EXEC" style="stroke:#181818;stroke-width:1;"/><polygon fill="#181818" points="503.82,26,494.82,22,498.82,26,494.82,30,503.82,26" style="stroke:#181818;stroke-width:1;"/></g><!--link JS to BUSQ--><g class="link" data-entity-1="ent0003" data-entity-2="ent0006" data-link-type="dependency" data-source-line="16" id="lnk13"><path d="M249.26,64.25 C279.15,64.25 313,64.25 313,64.25 C313,64.25 313,65.47 313,74.04" fill="none" id="JS-to-BUSQ" style="stroke:#181818;stroke-width:1;"/><polygon fill="#181818" points="313,80.04,317,71.04,313,75.04,309,71.04,313,80.04" style="stroke:#181818;stroke-width:1;"/></g><!--link BUSQ to BUSP--><g class="link" data-entity-1="ent0006" data-entity-2="ent0007" data-link-type="dependency" data-source-line="17" id="lnk14"><path d="M444,108 C474.7,108 504.6,108 533.87,108" fill="none" id="BUSQ-to-BUSP" style="stroke:#181818;stroke-width:1;"/><polygon fill="#181818" points="539.87,108,530.87,104,534.87,108,530.87,112,539.87,108" style="stroke:#181818;stroke-width:1;"/></g><!--link BUSP to PT--><g class="link" data-entity-1="ent0007" data-entity-2="ent0008" data-link-type="dependency" data-source-line="18" id="lnk15"><path d="M653.01,108 C682.48,108 712.58,108 742.78,108" fill="none" id="BUSP-to-PT" style="stroke:#181818;stroke-width:1;"/><polygon fill="#181818" points="748.78,108,739.78,104,743.78,108,739.78,112,748.78,108" style="stroke:#181818;stroke-width:1;"/></g><!--link PT to UI--><g class="link" data-entity-1="ent0008" data-entity-2="ent0009" data-link-type="dependency" data-source-line="19" id="lnk16"><path d="M872.19,108 C891.26,108 906.38,108 925.89,108" fill="none" id="PT-to-UI" style="stroke:#181818;stroke-width:1;"/><polygon fill="#181818" points="931.89,108,922.89,104,926.89,108,922.89,112,931.89,108" style="stroke:#181818;stroke-width:1;"/></g><?plantuml-src RP11QyCm38Nl-HMYfsrGTizXq8GS4WPrIG8x38QNQecfQnjRwTf_FrjP8ODTZ9xV9rdFuQICarwUGIk3T7C8rjDaCurV16J1gt4YE2gF0obhiYmLqemQOLDAhT73C-oSsu0Ci1DYxJVsixq5mZERJRlsYZRFQV8eZn_EMis4sEzVrqmT1-HvTSLX9do8ehI6y4gFJ5TlLRccgmiQAkRmRWuppim_yTs25trx-1yNtWuO0dVTqJyv8Z3wI7HU3YVqowxTckZh78AHBaoMuABmEp3KrraM_mIssvSKlscvufZfOCKnVXtUCHrt9P9Q-kE3ekCgJlq1?></g></svg>