<?plantuml 1.2026.2?><svg xmlns="http://www.w3.org/2000/svg" xmlns:xlink="http://www.w3.org/1999/xlink" contentStyleType="text/css" data-diagram-type="ACTIVITY" height="477px" preserveAspectRatio="none" style="width:314px;height:477px;background:#FFFFFF;" version="1.1" viewBox="0 0 314 477" width="314px" zoomAndPan="magnify"><defs/><g><ellipse cx="156.8999" cy="20" fill="#222222" rx="10" ry="10" style="stroke:#222222;stroke-width:1;"/><rect fill="#F1F1F1" height="35.0938" rx="12.5" ry="12.5" style="stroke:#181818;stroke-width:0.5;" width="82.6895" x="115.5552" y="50"/><text fill="#000000" font-family="sans-serif" font-size="12" lengthAdjust="spacing" textLength="62.6895" x="125.5552" y="72.457">SubmitAfter</text><rect fill="#F1F1F1" height="35.0938" rx="12.5" ry="12.5" style="stroke:#181818;stroke-width:0.5;" width="224.123" x="44.8384" y="105.0938"/><text fill="#000000" font-family="sans-serif" font-size="12" lengthAdjust="spacing" textLength="204.123" x="54.8384" y="127.5508">Create DelayedSubmission {id, dueAt}</text><rect fill="#F1F1F1" height="35.0938" rx="12.5" ry="12.5" style="stroke:#181818;stroke-width:0.5;" width="142.7656" x="85.5171" y="160.1875"/><text fill="#000000" font-family="sans-serif" font-size="12" lengthAdjust="spacing" textLength="122.7656" x="95.5171" y="182.6445">Push to delayed queue</text><rect fill="#F1F1F1" height="35.0938" rx="12.5" ry="12.5" style="stroke:#181818;stroke-width:0.5;" width="127.3965" x="93.2017" y="215.2813"/><text fill="#000000" font-family="sans-serif" font-size="12" lengthAdjust="spacing" textLength="107.3965" x="103.2017" y="237.7383">delayedWorkerLoop</text><polygon fill="#F1F1F1" points="118.0642,270.375,195.7356,270.375,207.7356,282.375,195.7356,294.375,118.0642,294.375,106.0642,282.375,118.0642,270.375" style="stroke:#181818;stroke-width:0.5;"/><text fill="#000000" font-family="sans-serif" font-size="11" lengthAdjust="spacing" textLength="77.6714" x="118.0642" y="286.876">dueAt reached?</text><text fill="#000000" font-family="sans-serif" font-size="11" lengthAdjust="spacing" textLength="12.2354" x="93.8289" y="279.958">no</text><text fill="#000000" font-family="sans-serif" font-size="11" lengthAdjust="spacing" textLength="17.1177" x="207.7356" y="279.958">yes</text><rect fill="#F1F1F1" height="35.0938" rx="12.5" ry="12.5" style="stroke:#181818;stroke-width:0.5;" width="135.3945" x="11" y="304.375"/><text fill="#000000" font-family="sans-serif" font-size="12" lengthAdjust="spacing" textLength="115.3945" x="21" y="326.832">wait_until(next dueAt)</text><rect fill="#F1F1F1" height="35.0938" rx="12.5" ry="12.5" style="stroke:#181818;stroke-width:0.5;" width="137.416" x="166.3945" y="304.375"/><text fill="#000000" font-family="sans-serif" font-size="12" lengthAdjust="spacing" textLength="117.416" x="176.3945" y="326.832">enqueueForExecution</text><rect fill="#F1F1F1" height="35.0938" rx="12.5" ry="12.5" style="stroke:#181818;stroke-width:0.5;" width="99.3945" x="185.4053" y="359.4688"/><text fill="#000000" font-family="sans-serif" font-size="12" lengthAdjust="spacing" textLength="79.3945" x="195.4053" y="381.9258">runJob on pool</text><polygon fill="#F1F1F1" points="156.8999,400.5625,168.8999,412.5625,156.8999,424.5625,144.8999,412.5625,156.8999,400.5625" style="stroke:#181818;stroke-width:0.5;"/><ellipse cx="156.8999" cy="455.5625" fill="none" rx="11" ry="11" style="stroke:#222222;stroke-width:1;"/><ellipse cx="156.8999" cy="455.5625" fill="#222222" rx="6" ry="6" style="stroke:#222222;stroke-width:1;"/><line style="stroke:#181818;stroke-width:1;" x1="156.8999" x2="156.8999" y1="30" y2="50"/><polygon fill="#181818" points="152.8999,40,156.8999,50,160.8999,40,156.8999,44" style="stroke:#181818;stroke-width:1;"/><line style="stroke:#181818;stroke-width:1;" x1="156.8999" x2="156.8999" y1="85.0938" y2="105.0938"/><polygon fill="#181818" points="152.8999,95.0938,156.8999,105.0938,160.8999,95.0938,156.8999,99.0938" style="stroke:#181818;stroke-width:1;"/><line style="stroke:#181818;stroke-width:1;" x1="156.8999" x2="156.8999" y1="140.1875" y2="160.1875"/><polygon fill="#181818" points="152.8999,150.1875,156.8999,160.1875,160.8999,150.1875,156.8999,154.1875" style="stroke:#181818;stroke-width:1;"/><line style="stroke:#181818;stroke-width:1;" x1="156.8999" x2="156.8999" y1="195.2813" y2="215.2813"/><polygon fill="#181818" points="152.8999,205.2813,156.8999,215.2813,160.8999,205.2813,156.8999,209.2813" style="stroke:#181818;stroke-width:1;"/><line style="stroke:#181818;stroke-width:1;" x1="235.1025" x2="235.1025" y1="339.4688" y2="359.4688"/><polygon fill="#181818" points="231.1025,349.4688,235.1025,359.4688,239.1025,349.4688,235.1025,353.4688" style="stroke:#181818;stroke-width:1;"/><line style="stroke:#181818;stroke-width:1;" x1="106.0642" x2="78.6973" y1="282.375" y2="282.375"/><line style="stroke:#181818;stroke-width:1;" x1="78.6973" x2="78.6973" y1="282.375" y2="304.375"/><polygon fill="#181818" points="74.6973,294.375,78.6973,304.375,82.6973,294.375,78.6973,298.375" style="stroke:#181818;stroke-width:1;"/><line style="stroke:#181818;stroke-width:1;" x1="207.7356" x2="235.1025" y1="282.375" y2="282.375"/><line style="stroke:#181818;stroke-width:1;" x1="235.1025" x2="235.1025" y1="282.375" y2="304.375"/><polygon fill="#181818" points="231.1025,294.375,235.1025,304.375,239.1025,294.375,235.1025,298.375" style="stroke:#181818;stroke-width:1;"/><line style="stroke:#181818;stroke-width:1;" x1="78.6973" x2="78.6973" y1="339.4688" y2="412.5625"/><line style="stroke:#181818;stroke-width:1;" x1="78.6973" x2="144.8999" y1="412.5625" y2="412.5625"/><polygon fill="#181818" points="134.8999,408.5625,144.8999,412.5625,134.8999,416.5625,138.8999,412.5625" style="stroke:#181818;stroke-width:1;"/><line style="stroke:#181818;stroke-width:1;" x1="235.1025" x2="235.1025" y1="394.5625" y2="412.5625"/><line style="stroke:#181818;stroke-width:1;" x1="235.1025" x2="168.8999" y1="412.5625" y2="412.5625"/><polygon fill="#181818" points="178.8999,408.5625,168.8999,412.5625,178.8999,416.5625,174.8999,412.5625" style="stroke:#181818;stroke-width:1;"/><line style="stroke:#181818;stroke-width:1;" x1="156.8999" x2="156.8999" y1="250.375" y2="270.375"/><polygon fill="#181818" points="152.8999,260.375,156.8999,270.375,160.8999,260.375,156.8999,264.375" style="stroke:#181818;stroke-width:1;"/><line style="stroke:#181818;stroke-width:1;" x1="156.8999" x2="156.8999" y1="424.5625" y2="444.5625"/><polygon fill="#181818" points="152.8999,434.5625,156.8999,444.5625,160.8999,434.5625,156.8999,438.5625" style="stroke:#181818;stroke-width:1;"/><?plantuml-src BO-nRiCm34HtVGL76-WNs4CHDEqGP2ZG8MEXH6UOY4Ag4eN4AFhlKPoEFBxZ7SkP9VdiBnHPO4i2QRPPdIlcixdXgnulR9l9a4Stl6Lu0sqH_OAmxafX5Vhby4AXOcD_3VkiPIPJ2a-EVYegclu_7pIVaVUgQNIE9-fM8xNRfndXjIUR8TI9zevek7gsxoh6iHFSx9dIZmwnWBe5PQKWQyY7vlSRJjLQgV6XvoexFLAhc5HZSqdWwV6TfZi0?></g></svg>