<?plantuml 1.2026.2?><svg xmlns="http://www.w3.org/2000/svg" xmlns:xlink="http://www.w3.org/1999/xlink" contentStyleType="text/css" data-diagram-type="SEQUENCE" height="571px" preserveAspectRatio="none" style="width:656px;height:571px;background:#FFFFFF;" version="1.1" viewBox="0 0 656 571" width="656px" zoomAndPan="magnify"><defs/><g><rect fill="none" height="138.2422" style="stroke:#000000;stroke-width:1.5;" width="518.6235" x="130.8804" y="333.7188"/><g class="participant-lifeline" data-entity-uid="part1" data-qualified-name="Caller" id="part1-lifeline"><g><title>Caller</title><rect fill="#000000" fill-opacity="0.00000" height="406.3516" width="8" x="22.2827" y="82.6094"/><line style="stroke:#181818;stroke-width:0.5;stroke-dasharray:5,5;" x1="26" x2="26" y1="82.6094" y2="488.9609"/></g></g><g class="participant-lifeline" data-entity-uid="part2" data-qualified-name="JobSystem" id="part2-lifeline"><g><title>JobSystem</title><rect fill="#000000" fill-opacity="0.00000" height="406.3516" width="8" x="178.5044" y="82.6094"/><line style="stroke:#181818;stroke-width:0.5;stroke-dasharray:5,5;" x1="181.8804" x2="181.8804" y1="82.6094" y2="488.9609"/></g></g><g class="participant-lifeline" data-entity-uid="part3" data-qualified-name="delayedWorkerLoop" id="part3-lifeline"><g><title>delayedWorkerLoop</title><rect fill="#000000" fill-opacity="0.00000" height="406.3516" width="8" x="438.584" y="82.6094"/><line style="stroke:#181818;stroke-width:0.5;stroke-dasharray:5,5;" x1="441.936" x2="441.936" y1="82.6094" y2="488.9609"/></g></g><g class="participant-lifeline" data-entity-uid="part4" data-qualified-name="ThreadPool" id="part4-lifeline"><g><title>thread pool</title><rect fill="#000000" fill-opacity="0.00000" height="406.3516" width="8" x="593.4766" y="82.6094"/><line style="stroke:#181818;stroke-width:0.5;stroke-dasharray:5,5;" x1="597.4492" x2="597.4492" y1="82.6094" y2="488.9609"/></g></g><g class="participant participant-head" data-entity-uid="part1" data-qualified-name="Caller" id="part1-head"><text fill="#000000" font-family="sans-serif" font-size="14" lengthAdjust="spacing" textLength="36.5654" x="5" y="79.5332">Caller</text><ellipse cx="26.2827" cy="13.5" fill="#E2E2F0" rx="8" ry="8" style="stroke:#181818;stroke-width:0.5;"/><path d="M26.2827,21.5 L26.2827,48.5 M13.2827,29.5 L39.2827,29.5 M26.2827,48.5 L13.2827,63.5 M26.2827,48.5 L39.2827,63.5" fill="none" style="stroke:#181818;stroke-width:0.5;"/></g><g class="participant participant-tail" data-entity-uid="part1" data-qualified-name="Caller" id="part1-tail"><text fill="#000000" font-family="sans-serif" font-size="14" lengthAdjust="spacing" textLength="36.5654" x="5" y="502.4941">Caller</text><ellipse cx="26.2827" cy="514.0703" fill="#E2E2F0" rx="8" ry="8" style="stroke:#181818;stroke-width:0.5;"/><path d="M26.2827,522.0703 L26.2827,549.0703 M13.2827,530.0703 L39.2827,530.0703 M26.2827,549.0703 L13.2827,564.0703 M26.2827,549.0703 L39.2827,564.0703" fill="none" style="stroke:#181818;stroke-width:0.5;"/></g><g class="participant participant-head" data-entity-uid="part2" data-qualified-name="JobSystem" id="part2-head"><rect fill="#E2E2F0" height="31.6094" rx="2.5" ry="2.5" style="stroke:#181818;stroke-width:0.5;" width="83.248" x="140.8804" y="50"/><text fill="#000000" font-family="sans-serif" font-size="14" lengthAdjust="spacing" textLength="69.248" x="147.8804" y="71.5332">JobSystem</text></g><g class="participant participant-tail" data-entity-uid="part2" data-qualified-name="JobSystem" id="part2-tail"><rect fill="#E2E2F0" height="31.6094" rx="2.5" ry="2.5" style="stroke:#181818;stroke-width:0.5;" width="83.248" x="140.8804" y="487.9609"/><text fill="#000000" font-family="sans-serif" font-size="14" lengthAdjust="spacing" textLength="69.248" x="147.8804" y="509.4941">JobSystem</text></g><g class="participant participant-head" data-entity-uid="part3" data-qualified-name="delayedWorkerLoop" id="part3-head"><rect fill="#E2E2F0" height="31.6094" rx="2.5" ry="2.5" style="stroke:#181818;stroke-width:0.5;" width="139.2959" x="372.936" y="50"/><text fill="#000000" font-family="sans-serif" font-size="14" lengthAdjust="spacing" textLength="125.2959" x="379.936" y="71.5332">delayedWorkerLoop</text></g><g class="participant participant-tail" data-entity-uid="part3" data-qualified-name="delayedWorkerLoop" id="part3-tail"><rect fill="#E2E2F0" height="31.6094" rx="2.5" ry="2.5" style="stroke:#181818;stroke-width:0.5;" width="139.2959" x="372.936" y="487.9609"/><text fill="#000000" font-family="sans-serif" font-size="14" lengthAdjust="spacing" textLength="125.2959" x="379.936" y="509.4941">delayedWorkerLoop</text></g><g class="participant participant-head" data-entity-uid="part4" data-qualified-name="ThreadPool" id="part4-head"><rect fill="#E2E2F0" height="31.6094" rx="2.5" ry="2.5" style="stroke:#181818;stroke-width:0.5;" width="84.0547" x="555.4492" y="50"/><text fill="#000000" font-family="sans-serif" font-size="14" lengthAdjust="spacing" textLength="70.0547" x="562.4492" y="71.5332">thread pool</text></g><g class="participant participant-tail" data-entity-uid="part4" data-qualified-name="ThreadPool" id="part4-tail"><rect fill="#E2E2F0" height="31.6094" rx="2.5" ry="2.5" style="stroke:#181818;stroke-width:0.5;" width="84.0547" x="555.4492" y="487.9609"/><text fill="#000000" font-family="sans-serif" font-size="14" lengthAdjust="spacing" textLength="70.0547" x="562.4492" y="509.4941">thread pool</text></g><g class="message" data-entity-1="part1" data-entity-2="part2" id="msg1"><polygon fill="#181818" points="170.5044,110.9609,180.5044,114.9609,170.5044,118.9609,174.5044,114.9609" style="stroke:#181818;stroke-width:1;"/><line style="stroke:#181818;stroke-width:1;" x1="26.2827" x2="176.5044" y1="114.9609" y2="114.9609"/><text fill="#000000" font-family="sans-serif" font-size="13" lengthAdjust="spacing" textLength="132.2217" x="33.2827" y="110.1045">SubmitAfter(job, delay)</text></g><g class="message" data-entity-1="part2" data-entity-2="part2" id="msg2"><line style="stroke:#181818;stroke-width:1;" x1="182.5044" x2="224.5044" y1="145.3125" y2="145.3125"/><line style="stroke:#181818;stroke-width:1;" x1="224.5044" x2="224.5044" y1="145.3125" y2="158.3125"/><line style="stroke:#181818;stroke-width:1;" x1="183.5044" x2="224.5044" y1="158.3125" y2="158.3125"/><polygon fill="#181818" points="193.5044,154.3125,183.5044,158.3125,193.5044,162.3125,189.5044,158.3125" style="stroke:#181818;stroke-width:1;"/><text fill="#000000" font-family="sans-serif" font-size="13" lengthAdjust="spacing" textLength="246.0796" x="189.5044" y="140.4561">recordQueued + Queue(JobQueuedEvent)</text></g><g class="message" data-entity-1="part2" data-entity-2="part2" id="msg3"><line style="stroke:#181818;stroke-width:1;" x1="182.5044" x2="224.5044" y1="188.6641" y2="188.6641"/><line style="stroke:#181818;stroke-width:1;" x1="224.5044" x2="224.5044" y1="188.6641" y2="201.6641"/><line style="stroke:#181818;stroke-width:1;" x1="183.5044" x2="224.5044" y1="201.6641" y2="201.6641"/><polygon fill="#181818" points="193.5044,197.6641,183.5044,201.6641,193.5044,205.6641,189.5044,201.6641" style="stroke:#181818;stroke-width:1;"/><text fill="#000000" font-family="sans-serif" font-size="13" lengthAdjust="spacing" textLength="189.3252" x="189.5044" y="183.8076">push DelayedSubmission(dueAt)</text></g><g class="message" data-entity-1="part2" data-entity-2="part3" id="msg4"><polygon fill="#181818" points="430.584,228.0156,440.584,232.0156,430.584,236.0156,434.584,232.0156" style="stroke:#181818;stroke-width:1;"/><line style="stroke:#181818;stroke-width:1;" x1="182.5044" x2="436.584" y1="232.0156" y2="232.0156"/><text fill="#000000" font-family="sans-serif" font-size="13" lengthAdjust="spacing" textLength="101.8926" x="189.5044" y="227.1592">notify delayed CV</text></g><g class="message" data-entity-1="part3" data-entity-2="part3" id="msg5"><line style="stroke:#181818;stroke-width:1;" x1="442.584" x2="484.584" y1="262.3672" y2="262.3672"/><line style="stroke:#181818;stroke-width:1;" x1="484.584" x2="484.584" y1="262.3672" y2="275.3672"/><line style="stroke:#181818;stroke-width:1;" x1="443.584" x2="484.584" y1="275.3672" y2="275.3672"/><polygon fill="#181818" points="453.584,271.3672,443.584,275.3672,453.584,279.3672,449.584,275.3672" style="stroke:#181818;stroke-width:1;"/><text fill="#000000" font-family="sans-serif" font-size="13" lengthAdjust="spacing" textLength="140.8926" x="449.584" y="257.5107">wait(hasWakeCondition)</text></g><g class="message" data-entity-1="part3" data-entity-2="part3" id="msg6"><line style="stroke:#181818;stroke-width:1;" x1="442.584" x2="484.584" y1="305.7188" y2="305.7188"/><line style="stroke:#181818;stroke-width:1;" x1="484.584" x2="484.584" y1="305.7188" y2="318.7188"/><line style="stroke:#181818;stroke-width:1;" x1="443.584" x2="484.584" y1="318.7188" y2="318.7188"/><polygon fill="#181818" points="453.584,314.7188,443.584,318.7188,453.584,322.7188,449.584,318.7188" style="stroke:#181818;stroke-width:1;"/><text fill="#000000" font-family="sans-serif" font-size="13" lengthAdjust="spacing" textLength="85.2617" x="449.584" y="300.8623">pick min dueAt</text></g><path d="M130.8804,333.7188 L191.0513,333.7188 L191.0513,342.0703 L181.0513,352.0703 L130.8804,352.0703 L130.8804,333.7188" fill="#EEEEEE" style="stroke:#000000;stroke-width:1.5;"/><rect fill="none" height="138.2422" style="stroke:#000000;stroke-width:1.5;" width="518.6235" x="130.8804" y="333.7188"/><text fill="#000000" font-family="sans-serif" font-size="13" font-weight="bold" lengthAdjust="spacing" textLength="15.1709" x="145.8804" y="348.2139">alt</text><text fill="#000000" font-family="sans-serif" font-size="11" font-weight="bold" lengthAdjust="spacing" textLength="73.02" x="206.0513" y="347.1377">[dueAt &gt; now]</text><g class="message" data-entity-1="part3" data-entity-2="part3" id="msg7"><line style="stroke:#181818;stroke-width:1;" x1="442.584" x2="484.584" y1="374.4219" y2="374.4219"/><line style="stroke:#181818;stroke-width:1;" x1="484.584" x2="484.584" y1="374.4219" y2="387.4219"/><line style="stroke:#181818;stroke-width:1;" x1="443.584" x2="484.584" y1="387.4219" y2="387.4219"/><polygon fill="#181818" points="453.584,383.4219,443.584,387.4219,453.584,391.4219,449.584,387.4219" style="stroke:#181818;stroke-width:1;"/><text fill="#000000" font-family="sans-serif" font-size="13" lengthAdjust="spacing" textLength="96.8271" x="449.584" y="369.5654">wait_until(dueAt)</text></g><line style="stroke:#000000;stroke-width:1;stroke-dasharray:2,2;" x1="130.8804" x2="649.5039" y1="396.4219" y2="396.4219"/><text fill="#000000" font-family="sans-serif" font-size="11" font-weight="bold" lengthAdjust="spacing" textLength="36.6792" x="135.8804" y="407.8408">[ready]</text><g class="message" data-entity-1="part3" data-entity-2="part2" id="msg8"><polygon fill="#181818" points="193.5044,429.6094,183.5044,433.6094,193.5044,437.6094,189.5044,433.6094" style="stroke:#181818;stroke-width:1;"/><line style="stroke:#181818;stroke-width:1;" x1="187.5044" x2="441.584" y1="433.6094" y2="433.6094"/><text fill="#000000" font-family="sans-serif" font-size="13" lengthAdjust="spacing" textLength="127.2007" x="199.5044" y="428.7529">enqueueForExecution</text></g><g class="message" data-entity-1="part2" data-entity-2="part4" id="msg9"><polygon fill="#181818" points="585.4766,459.9609,595.4766,463.9609,585.4766,467.9609,589.4766,463.9609" style="stroke:#181818;stroke-width:1;"/><line style="stroke:#181818;stroke-width:1;" x1="182.5044" x2="591.4766" y1="463.9609" y2="463.9609"/><text fill="#000000" font-family="sans-serif" font-size="13" lengthAdjust="spacing" textLength="118.5107" x="189.5044" y="459.1045">detach_task(runJob)</text></g><?plantuml-src bL5DJyCm3BtdLrWxTGB-08T9Kna7n04qn8wJstXgrZGkYSFeloTjDOrk6eARFzxpyxEn5FQGexNaLOjUJ6bQT09FNAox8DHCgfeiTgGtx6lopypjf3kJoXDgQ9dj3330sv2_f5IfKGFk5gVHS0_hM3H6bZiXd-svk1qLvkg4EIDuAjdhrqYHDDp046G9C5PMd-Ja5tORGmKFeub1EWJ3BjEHbkUq2wk9xbZChZks87zNwX9sXNj08rc5OOCrvUoqaQGy_pk_DMKDZN4mBAiKMXb3MAIz3WhWNwjienDZZyx91eB-LzsrEJ-lIEwZl_OZ-zKNbR4tacYJwvq-d_2Q1CjgAnZgp4UNW4dHQVKD?></g></svg>