<?plantuml 1.2026.2?><svg xmlns="http://www.w3.org/2000/svg" xmlns:xlink="http://www.w3.org/1999/xlink" contentStyleType="text/css" data-diagram-type="CLASS" height="525px" preserveAspectRatio="none" style="width:540px;height:525px;background:#FFFFFF;" version="1.1" viewBox="0 0 540 525" width="540px" zoomAndPan="magnify"><defs/><g><!--class IJob--><g class="entity" data-qualified-name="IJob" data-source-line="3" id="ent0002"><rect fill="#F1F1F1" height="100.8281" rx="2.5" ry="2.5" style="stroke:#181818;stroke-width:0.5;" width="160.2441" x="105" y="203"/><ellipse cx="167.6411" cy="219" fill="#ADD1B2" rx="11" ry="11" style="stroke:#181818;stroke-width:1;"/><path d="M170.4067,214.875 Q170.563,214.6563 170.7505,214.5469 Q170.938,214.4375 171.1567,214.4375 Q171.5317,214.4375 171.7661,214.7031 Q172.0005,214.9531 172.0005,215.5625 L172.0005,217.0156 Q172.0005,217.625 171.7661,217.8906 Q171.5317,218.1563 171.1567,218.1563 Q170.813,218.1563 170.6099,217.9531 Q170.4067,217.7656 170.2974,217.25 Q170.2505,216.8906 170.063,216.7031 Q169.7349,216.3281 169.1255,216.1094 Q168.5161,215.8906 167.8911,215.8906 Q167.1255,215.8906 166.4849,216.2188 Q165.8599,216.5469 165.3599,217.2969 Q164.8755,218.0469 164.8755,219.0781 L164.8755,220.1719 Q164.8755,221.4063 165.7661,222.2344 Q166.6567,223.0469 168.2505,223.0469 Q169.188,223.0469 169.8442,222.7969 Q170.2349,222.6406 170.6567,222.2031 Q170.9224,221.9375 171.063,221.8594 Q171.2192,221.7813 171.4224,221.7813 Q171.7505,221.7813 172.0005,222.0469 Q172.2661,222.2969 172.2661,222.6406 Q172.2661,222.9844 171.9224,223.3906 Q171.4224,223.9688 170.6255,224.2969 Q169.5474,224.75 168.2505,224.75 Q166.7349,224.75 165.5317,224.125 Q164.5474,223.625 163.8599,222.5625 Q163.1724,221.4844 163.1724,220.2031 L163.1724,219.0469 Q163.1724,217.7188 163.7817,216.5781 Q164.4067,215.4219 165.5005,214.8125 Q166.5942,214.1875 167.8286,214.1875 Q168.563,214.1875 169.2036,214.3594 Q169.8599,214.5156 170.4067,214.875 Z " fill="#000000"/><text fill="#000000" font-family="sans-serif" font-size="14" lengthAdjust="spacing" textLength="26.4619" x="188.1411" y="224.7285">IJob</text><line style="stroke:#181818;stroke-width:0.5;" x1="106" x2="264.2441" y1="235" y2="235"/><line style="stroke:#181818;stroke-width:0.5;" x1="106" x2="264.2441" y1="243" y2="243"/><text fill="#000000" font-family="sans-serif" font-size="14" lengthAdjust="spacing" textLength="115.5342" x="111" y="261.5332">+GetName() string</text><text fill="#000000" font-family="sans-serif" font-size="14" lengthAdjust="spacing" textLength="109.3135" x="111" y="279.1426">+GetType() string</text><text fill="#000000" font-family="sans-serif" font-size="14" lengthAdjust="spacing" textLength="148.2441" x="111" y="296.752">+Execute(JobContext&amp;)</text></g><!--class JobContext--><g class="entity" data-qualified-name="JobContext" data-source-line="9" id="ent0003"><rect fill="#F1F1F1" height="136.0469" rx="2.5" ry="2.5" style="stroke:#181818;stroke-width:0.5;" width="268.4023" x="51" y="382"/><ellipse cx="145.541" cy="398" fill="#ADD1B2" rx="11" ry="11" style="stroke:#181818;stroke-width:1;"/><path d="M148.3066,393.875 Q148.4629,393.6563 148.6504,393.5469 Q148.8379,393.4375 149.0566,393.4375 Q149.4316,393.4375 149.666,393.7031 Q149.9004,393.9531 149.9004,394.5625 L149.9004,396.0156 Q149.9004,396.625 149.666,396.8906 Q149.4316,397.1563 149.0566,397.1563 Q148.7129,397.1563 148.5098,396.9531 Q148.3066,396.7656 148.1973,396.25 Q148.1504,395.8906 147.9629,395.7031 Q147.6348,395.3281 147.0254,395.1094 Q146.416,394.8906 145.791,394.8906 Q145.0254,394.8906 144.3848,395.2188 Q143.7598,395.5469 143.2598,396.2969 Q142.7754,397.0469 142.7754,398.0781 L142.7754,399.1719 Q142.7754,400.4063 143.666,401.2344 Q144.5566,402.0469 146.1504,402.0469 Q147.0879,402.0469 147.7441,401.7969 Q148.1348,401.6406 148.5566,401.2031 Q148.8223,400.9375 148.9629,400.8594 Q149.1191,400.7813 149.3223,400.7813 Q149.6504,400.7813 149.9004,401.0469 Q150.166,401.2969 150.166,401.6406 Q150.166,401.9844 149.8223,402.3906 Q149.3223,402.9688 148.5254,403.2969 Q147.4473,403.75 146.1504,403.75 Q144.6348,403.75 143.4316,403.125 Q142.4473,402.625 141.7598,401.5625 Q141.0723,400.4844 141.0723,399.2031 L141.0723,398.0469 Q141.0723,396.7188 141.6816,395.5781 Q142.3066,394.4219 143.4004,393.8125 Q144.4941,393.1875 145.7285,393.1875 Q146.4629,393.1875 147.1035,393.3594 Q147.7598,393.5156 148.3066,393.875 Z " fill="#000000"/><text fill="#000000" font-family="sans-serif" font-size="14" lengthAdjust="spacing" textLength="70.8203" x="166.041" y="403.7285">JobContext</text><line style="stroke:#181818;stroke-width:0.5;" x1="52" x2="318.4023" y1="414" y2="414"/><line style="stroke:#181818;stroke-width:0.5;" x1="52" x2="318.4023" y1="422" y2="422"/><text fill="#000000" font-family="sans-serif" font-size="14" lengthAdjust="spacing" textLength="151.3477" x="57" y="440.5332">+SetProgress(float,float)</text><text fill="#000000" font-family="sans-serif" font-size="14" lengthAdjust="spacing" textLength="109.334" x="57" y="458.1426">+SetStage(string)</text><text fill="#000000" font-family="sans-serif" font-size="14" lengthAdjust="spacing" textLength="129.5547" x="57" y="475.752">+SetMessage(string)</text><text fill="#000000" font-family="sans-serif" font-size="14" lengthAdjust="spacing" textLength="256.4023" x="57" y="493.3613">+SubmitJob(Ref&lt;IJob&gt;,JobPriority) JobId</text><text fill="#000000" font-family="sans-serif" font-size="14" lengthAdjust="spacing" textLength="153.6787" x="57" y="510.9707">+WaitForJob(JobId) bool</text></g><!--class JobSystem--><g class="entity" data-qualified-name="JobSystem" data-source-line="17" id="ent0004"><rect fill="#F1F1F1" height="118.4375" rx="2.5" ry="2.5" style="stroke:#181818;stroke-width:0.5;" width="355.5332" x="7" y="7"/><ellipse cx="145.8926" cy="23" fill="#ADD1B2" rx="11" ry="11" style="stroke:#181818;stroke-width:1;"/><path d="M148.6582,18.875 Q148.8145,18.6563 149.002,18.5469 Q149.1895,18.4375 149.4082,18.4375 Q149.7832,18.4375 150.0176,18.7031 Q150.252,18.9531 150.252,19.5625 L150.252,21.0156 Q150.252,21.625 150.0176,21.8906 Q149.7832,22.1563 149.4082,22.1563 Q149.0645,22.1563 148.8613,21.9531 Q148.6582,21.7656 148.5488,21.25 Q148.502,20.8906 148.3145,20.7031 Q147.9863,20.3281 147.377,20.1094 Q146.7676,19.8906 146.1426,19.8906 Q145.377,19.8906 144.7363,20.2188 Q144.1113,20.5469 143.6113,21.2969 Q143.127,22.0469 143.127,23.0781 L143.127,24.1719 Q143.127,25.4063 144.0176,26.2344 Q144.9082,27.0469 146.502,27.0469 Q147.4395,27.0469 148.0957,26.7969 Q148.4863,26.6406 148.9082,26.2031 Q149.1738,25.9375 149.3145,25.8594 Q149.4707,25.7813 149.6738,25.7813 Q150.002,25.7813 150.252,26.0469 Q150.5176,26.2969 150.5176,26.6406 Q150.5176,26.9844 150.1738,27.3906 Q149.6738,27.9688 148.877,28.2969 Q147.7988,28.75 146.502,28.75 Q144.9863,28.75 143.7832,28.125 Q142.7988,27.625 142.1113,26.5625 Q141.4238,25.4844 141.4238,24.2031 L141.4238,23.0469 Q141.4238,21.7188 142.0332,20.5781 Q142.6582,19.4219 143.752,18.8125 Q144.8457,18.1875 146.0801,18.1875 Q146.8145,18.1875 147.4551,18.3594 Q148.1113,18.5156 148.6582,18.875 Z " fill="#000000"/><text fill="#000000" font-family="sans-serif" font-size="14" lengthAdjust="spacing" textLength="69.248" x="166.3926" y="28.7285">JobSystem</text><line style="stroke:#181818;stroke-width:0.5;" x1="8" x2="361.5332" y1="39" y2="39"/><line style="stroke:#181818;stroke-width:0.5;" x1="8" x2="361.5332" y1="47" y2="47"/><text fill="#000000" font-family="sans-serif" font-size="14" lengthAdjust="spacing" textLength="233.8301" x="13" y="65.5332">+Submit(Ref&lt;IJob&gt;,JobPriority) JobId</text><text fill="#000000" font-family="sans-serif" font-size="14" lengthAdjust="spacing" textLength="343.5332" x="13" y="83.1426">+SubmitAfter(Ref&lt;IJob&gt;,Milliseconds,JobPriority) JobId</text><text fill="#000000" font-family="sans-serif" font-size="14" lengthAdjust="spacing" textLength="177.8301" x="13" y="100.752">+RequestCancel(JobId) bool</text><text fill="#000000" font-family="sans-serif" font-size="14" lengthAdjust="spacing" textLength="247.8984" x="13" y="118.3613">+GetJob(JobId) optional&lt;JobSnapshot&gt;</text></g><!--class EventBus--><g class="entity" data-qualified-name="EventBus" data-source-line="24" id="ent0005"><rect fill="#F1F1F1" height="48" rx="2.5" ry="2.5" style="stroke:#181818;stroke-width:0.5;" width="91.9238" x="360" y="229.5"/><ellipse cx="375" cy="245.5" fill="#ADD1B2" rx="11" ry="11" style="stroke:#181818;stroke-width:1;"/><path d="M377.7656,241.375 Q377.9219,241.1563 378.1094,241.0469 Q378.2969,240.9375 378.5156,240.9375 Q378.8906,240.9375 379.125,241.2031 Q379.3594,241.4531 379.3594,242.0625 L379.3594,243.5156 Q379.3594,244.125 379.125,244.3906 Q378.8906,244.6563 378.5156,244.6563 Q378.1719,244.6563 377.9688,244.4531 Q377.7656,244.2656 377.6563,243.75 Q377.6094,243.3906 377.4219,243.2031 Q377.0938,242.8281 376.4844,242.6094 Q375.875,242.3906 375.25,242.3906 Q374.4844,242.3906 373.8438,242.7188 Q373.2188,243.0469 372.7188,243.7969 Q372.2344,244.5469 372.2344,245.5781 L372.2344,246.6719 Q372.2344,247.9063 373.125,248.7344 Q374.0156,249.5469 375.6094,249.5469 Q376.5469,249.5469 377.2031,249.2969 Q377.5938,249.1406 378.0156,248.7031 Q378.2813,248.4375 378.4219,248.3594 Q378.5781,248.2813 378.7813,248.2813 Q379.1094,248.2813 379.3594,248.5469 Q379.625,248.7969 379.625,249.1406 Q379.625,249.4844 379.2813,249.8906 Q378.7813,250.4688 377.9844,250.7969 Q376.9063,251.25 375.6094,251.25 Q374.0938,251.25 372.8906,250.625 Q371.9063,250.125 371.2188,249.0625 Q370.5313,247.9844 370.5313,246.7031 L370.5313,245.5469 Q370.5313,244.2188 371.1406,243.0781 Q371.7656,241.9219 372.8594,241.3125 Q373.9531,240.6875 375.1875,240.6875 Q375.9219,240.6875 376.5625,240.8594 Q377.2188,241.0156 377.7656,241.375 Z " fill="#000000"/><text fill="#000000" font-family="sans-serif" font-size="14" lengthAdjust="spacing" textLength="59.9238" x="389" y="251.2285">EventBus</text><line style="stroke:#181818;stroke-width:0.5;" x1="361" x2="450.9238" y1="261.5" y2="261.5"/><line style="stroke:#181818;stroke-width:0.5;" x1="361" x2="450.9238" y1="269.5" y2="269.5"/></g><!--class ProgressTracker--><g class="entity" data-qualified-name="ProgressTracker" data-source-line="25" id="ent0006"><rect fill="#F1F1F1" height="48" rx="2.5" ry="2.5" style="stroke:#181818;stroke-width:0.5;" width="135.4688" x="398.5" y="42"/><ellipse cx="413.5" cy="58" fill="#ADD1B2" rx="11" ry="11" style="stroke:#181818;stroke-width:1;"/><path d="M416.2656,53.875 Q416.4219,53.6563 416.6094,53.5469 Q416.7969,53.4375 417.0156,53.4375 Q417.3906,53.4375 417.625,53.7031 Q417.8594,53.9531 417.8594,54.5625 L417.8594,56.0156 Q417.8594,56.625 417.625,56.8906 Q417.3906,57.1563 417.0156,57.1563 Q416.6719,57.1563 416.4688,56.9531 Q416.2656,56.7656 416.1563,56.25 Q416.1094,55.8906 415.9219,55.7031 Q415.5938,55.3281 414.9844,55.1094 Q414.375,54.8906 413.75,54.8906 Q412.9844,54.8906 412.3438,55.2188 Q411.7188,55.5469 411.2188,56.2969 Q410.7344,57.0469 410.7344,58.0781 L410.7344,59.1719 Q410.7344,60.4063 411.625,61.2344 Q412.5156,62.0469 414.1094,62.0469 Q415.0469,62.0469 415.7031,61.7969 Q416.0938,61.6406 416.5156,61.2031 Q416.7813,60.9375 416.9219,60.8594 Q417.0781,60.7813 417.2813,60.7813 Q417.6094,60.7813 417.8594,61.0469 Q418.125,61.2969 418.125,61.6406 Q418.125,61.9844 417.7813,62.3906 Q417.2813,62.9688 416.4844,63.2969 Q415.4063,63.75 414.1094,63.75 Q412.5938,63.75 411.3906,63.125 Q410.4063,62.625 409.7188,61.5625 Q409.0313,60.4844 409.0313,59.2031 L409.0313,58.0469 Q409.0313,56.7188 409.6406,55.5781 Q410.2656,54.4219 411.3594,53.8125 Q412.4531,53.1875 413.6875,53.1875 Q414.4219,53.1875 415.0625,53.3594 Q415.7188,53.5156 416.2656,53.875 Z " fill="#000000"/><text fill="#000000" font-family="sans-serif" font-size="14" lengthAdjust="spacing" textLength="103.4688" x="427.5" y="63.7285">ProgressTracker</text><line style="stroke:#181818;stroke-width:0.5;" x1="399.5" x2="532.9688" y1="74" y2="74"/><line style="stroke:#181818;stroke-width:0.5;" x1="399.5" x2="532.9688" y1="82" y2="82"/></g><!--link JobSystem to IJob--><g class="link" data-entity-1="ent0004" data-entity-2="ent0002" data-link-type="dependency" data-source-line="27" id="lnk7"><path codeLine="27" d="M185,125.18 C185,150.15 185,173.02 185,196.95" fill="none" id="JobSystem-to-IJob" style="stroke:#181818;stroke-width:1;"/><polygon fill="#181818" points="185,202.95,189,193.95,185,197.95,181,193.95,185,202.95" style="stroke:#181818;stroke-width:1;"/><text fill="#000000" font-family="sans-serif" font-size="13" lengthAdjust="spacing" textLength="52.0317" x="186" y="169.4951">executes</text></g><!--link IJob to JobContext--><g class="link" data-entity-1="ent0002" data-entity-2="ent0003" data-link-type="dependency" data-source-line="28" id="lnk8"><path codeLine="28" d="M185,304.08 C185,327.72 185,350.35 185,375.89" fill="none" id="IJob-to-JobContext" style="stroke:#181818;stroke-width:1;"/><polygon fill="#181818" points="185,381.89,189,372.89,185,376.89,181,372.89,185,381.89" style="stroke:#181818;stroke-width:1;"/><text fill="#000000" font-family="sans-serif" font-size="13" lengthAdjust="spacing" textLength="27.46" x="186" y="348.4951">uses</text></g><!--link JobSystem to EventBus--><g class="link" data-entity-1="ent0004" data-entity-2="ent0005" data-link-type="dependency" data-source-line="29" id="lnk9"><path codeLine="29" d="M249.5,125.17 C267.3,140.9 286.75,157.78 305,173 C328.31,192.44 350.6012,209.9928 370.8412,225.6228" fill="none" id="JobSystem-to-EventBus" style="stroke:#181818;stroke-width:1;"/><polygon fill="#181818" points="375.59,229.29,370.9115,220.6233,371.6326,226.234,366.0219,226.9551,375.59,229.29" style="stroke:#181818;stroke-width:1;"/><text fill="#000000" font-family="sans-serif" font-size="13" lengthAdjust="spacing" textLength="117.7998" x="306" y="169.4951">publishes Job*Event</text></g><!--link ProgressTracker to EventBus--><g class="link" data-entity-1="ent0006" data-entity-2="ent0005" data-link-type="dependency" data-source-line="30" id="lnk10"><path codeLine="30" d="M458.52,90.12 C446.99,125.76 426.8568,188.0313 415.3268,223.6713" fill="none" id="ProgressTracker-to-EventBus" style="stroke:#181818;stroke-width:1;"/><polygon fill="#181818" points="413.48,229.38,420.0561,222.0482,415.019,224.6228,412.4445,219.5857,413.48,229.38" style="stroke:#181818;stroke-width:1;"/><text fill="#000000" font-family="sans-serif" font-size="13" lengthAdjust="spacing" textLength="62.1372" x="437" y="169.4951">subscribes</text></g><?plantuml-src XL91QiCm4Bph5JeLkqsWvn02QKXB2YaX3lGiEsj7H9PSxQeaBVrxPTd6Tg3q8j3CxEneLtYMkX9Mb3nJ0d59P6Ng23QPqOdy0lx8M63uvjMa_9jn_l02z2PAY6AENgsB5ZjSgp6sla3chI9Vk3AQu49tCVlf_7gqSKs0TjOK5X2ZN1b1at36BPUGA21gp3jiwxMtg4jBITuxsaC-hpCl9lxOMMcif6jSjzqSQ-MxaFHiR2qDMCnJOzGeNt95WhAD5up_TMraovp03hHRgPH4y3CzuX-5U_XmWBGIEWCrIjHCTv3JL2ID5cfUHzIYmfEXHHzy_GcQdXosrswe1okoCrZ6-eTDfujchJCEpQwGXNjD3FOpumuzDIxisdYsSgb_tWd2qEu3mMxQtfQWIp7pNytR_W80?></g></svg>