# Unit cone aligned to +Z, apex at z=1, base radius=1 at z=0
v 1.000000 0.000000 0.000000
v 0.707107 0.707107 0.000000
v 0.000000 1.000000 0.000000
v -0.707107 0.707107 0.000000
v -1.000000 0.000000 0.000000
v -0.707107 -0.707107 0.000000
v 0.000000 -1.000000 0.000000
v 0.707107 -0.707107 0.000000
v 0.000000 0.000000 1.000000
v 1.000000 0.000000 0.000000
v 0.707107 0.707107 0.000000
v 0.000000 1.000000 0.000000
v -0.707107 0.707107 0.000000
v -1.000000 0.000000 0.000000
v -0.707107 -0.707107 0.000000
v 0.000000 -1.000000 0.000000
v 0.707107 -0.707107 0.000000
v 0.000000 0.000000 0.000000

vn 0.707107 0.000000 0.707107
vn 0.500000 0.500000 0.707107
vn 0.000000 0.707107 0.707107
vn -0.500000 0.500000 0.707107
vn -0.707107 0.000000 0.707107
vn -0.500000 -0.500000 0.707107
vn 0.000000 -0.707107 0.707107
vn 0.500000 -0.500000 0.707107
vn 0.000000 0.000000 -1.000000

f 1//1 2//2 9//1
f 2//2 3//3 9//2
f 3//3 4//4 9//3
f 4//4 5//5 9//4
f 5//5 6//6 9//5
f 6//6 7//7 9//6
f 7//7 8//8 9//7
f 8//8 1//1 9//8

f 18//9 11//9 10//9
f 18//9 12//9 11//9
f 18//9 13//9 12//9
f 18//9 14//9 13//9
f 18//9 15//9 14//9
f 18//9 16//9 15//9
f 18//9 17//9 16//9
f 18//9 10//9 17//9
