# Unit icosahedron sphere proxy (radius ~= 1.0)
v -0.525731 0.000000 0.850651
v 0.525731 0.000000 0.850651
v -0.525731 0.000000 -0.850651
v 0.525731 0.000000 -0.850651
v 0.000000 0.850651 0.525731
v 0.000000 0.850651 -0.525731
v 0.000000 -0.850651 0.525731
v 0.000000 -0.850651 -0.525731
v 0.850651 0.525731 0.000000
v -0.850651 0.525731 0.000000
v 0.850651 -0.525731 0.000000
v -0.850651 -0.525731 0.000000

f 1 5 2
f 1 10 5
f 10 6 5
f 5 6 9
f 5 9 2
f 9 11 2
f 9 4 11
f 6 4 9
f 6 3 4
f 3 8 4
f 8 11 4
f 8 7 11
f 8 12 7
f 12 1 7
f 1 2 7
f 7 2 11
f 10 1 12
f 10 12 3
f 10 3 6
f 8 3 12
